<?xml version="1.0" encoding="utf-8"?>
<!-- Generator: Adobe Illustrator 24.0.3, SVG Export Plug-In . SVG Version: 6.00 Build 0)  -->
<svg version="1.1" id="Layer_1" xmlns="http://www.w3.org/2000/svg" xmlns:xlink="http://www.w3.org/1999/xlink" x="0px" y="0px"
	 viewBox="0 0 24 24" style="enable-background:new 0 0 24 24;" xml:space="preserve">
<style type="text/css">
	.st0{fill:#5086FC;}
</style>
<path class="st0" d="M12,2c5.5,0,10,4.5,10,10s-4.5,10-10,10S2,17.5,2,12S6.5,2,12,2z M12,0C5.4,0,0,5.4,0,12s5.4,12,12,12
	s12-5.4,12-12S18.6,0,12,0z M12,7.1c1.6,0,1.8,0,2.4,0c1.6,0.1,2.4,0.8,2.5,2.5c0,0.6,0,0.8,0,2.4s0,1.8,0,2.4
	c-0.1,1.6-0.8,2.4-2.5,2.5c-0.6,0-0.8,0-2.4,0c-1.6,0-1.8,0-2.4,0c-1.6-0.1-2.4-0.8-2.5-2.5c0-0.6,0-0.8,0-2.4s0-1.8,0-2.4
	C7.2,8,7.9,7.2,9.6,7.1C10.2,7.1,10.4,7.1,12,7.1z M12,6c-1.6,0-1.8,0-2.5,0C7.3,6.1,6.1,7.3,6,9.5c0,0.6,0,0.8,0,2.5
	c0,1.6,0,1.8,0,2.5c0.1,2.2,1.3,3.4,3.5,3.5c0.6,0,0.8,0,2.5,0s1.8,0,2.5,0c2.2-0.1,3.4-1.3,3.5-3.5c0-0.6,0-0.8,0-2.5
	c0-1.6,0-1.8,0-2.5c-0.1-2.2-1.3-3.4-3.5-3.5C13.8,6,13.6,6,12,6z M12,8.9c-1.7,0-3.1,1.4-3.1,3.1s1.4,3.1,3.1,3.1s3.1-1.4,3.1-3.1
	C15.1,10.3,13.7,8.9,12,8.9z M12,14c-1.1,0-2-0.9-2-2c0-1.1,0.9-2,2-2c1.1,0,2,0.9,2,2S13.1,14,12,14z M15.2,8.1
	c-0.4,0-0.7,0.3-0.7,0.7c0,0.4,0.3,0.7,0.7,0.7c0.4,0,0.7-0.3,0.7-0.7C15.9,8.4,15.6,8.1,15.2,8.1z"/>
</svg>
