<?xml version="1.0" encoding="utf-8"?>
<!-- Generator: Adobe Illustrator 24.0.3, SVG Export Plug-In . SVG Version: 6.00 Build 0)  -->
<svg version="1.1" id="Layer_1" xmlns="http://www.w3.org/2000/svg" xmlns:xlink="http://www.w3.org/1999/xlink" x="0px" y="0px"
	 viewBox="0 0 24 24" style="enable-background:new 0 0 24 24;" xml:space="preserve">
<style type="text/css">
	.st0{fill-rule:evenodd;clip-rule:evenodd;fill:#5086FC;}
</style>
<path class="st0" d="M12,0C5.4,0,0,5.4,0,12s5.4,12,12,12s12-5.4,12-12S18.6,0,12,0z M12,2c5.5,0,10,4.5,10,10s-4.5,10-10,10
	S2,17.5,2,12S6.5,2,12,2z M12,5c-3.9,0-7,3.1-7,7s3.1,7,7,7s7-3.1,7-7S15.9,5,12,5z M15.2,15.1c-0.1,0.2-0.4,0.3-0.6,0.1
	c-1.6-1-3.7-1.2-6.1-0.7c-0.2,0.1-0.5-0.1-0.5-0.3C7.9,14,8,13.8,8.3,13.7c2.7-0.6,5-0.3,6.8,0.8C15.3,14.6,15.3,14.9,15.2,15.1z
	 M16.1,13.2c-0.2,0.3-0.5,0.3-0.8,0.2c-1.9-1.2-4.8-1.5-7-0.8c-0.3,0.1-0.6-0.1-0.7-0.4c-0.1-0.3,0.1-0.6,0.4-0.7
	c2.5-0.8,5.7-0.4,7.9,0.9C16.1,12.6,16.2,12.9,16.1,13.2z M16.1,11.2c-2.3-1.3-6-1.5-8.1-0.8c-0.3,0.1-0.7-0.1-0.8-0.4
	s0.1-0.7,0.4-0.8c2.5-0.8,6.6-0.6,9.2,0.9c0.3,0.2,0.4,0.6,0.2,0.9C16.9,11.3,16.5,11.4,16.1,11.2z"/>
</svg>
