<?xml version="1.0" encoding="utf-8"?>
<!-- Generator: Adobe Illustrator 24.0.3, SVG Export Plug-In . SVG Version: 6.00 Build 0)  -->
<svg version="1.1" id="Layer_1" xmlns="http://www.w3.org/2000/svg" xmlns:xlink="http://www.w3.org/1999/xlink" x="0px" y="0px"
	 viewBox="0 0 24 24" style="enable-background:new 0 0 24 24;" xml:space="preserve">
<style type="text/css">
	.st0{fill:#5086FC;}
</style>
<path class="st0" d="M16.2,7.1c-2-0.1-6.5-0.1-8.5,0C5.6,7.2,5.3,8.6,5.3,12c0,3.4,0.3,4.8,2.4,4.9c2,0.1,6.5,0.1,8.5,0
	c2.2-0.1,2.4-1.5,2.4-4.9C18.6,8.6,18.4,7.2,16.2,7.1z M10,14.2V9.8l4.8,2.2L10,14.2z M12,2c5.5,0,10,4.5,10,10s-4.5,10-10,10
	S2,17.5,2,12S6.5,2,12,2z M12,0C5.4,0,0,5.4,0,12s5.4,12,12,12s12-5.4,12-12S18.6,0,12,0z"/>
</svg>
